PathFileType	4	(X/Y/Z)	Walk1.trc
DataRate	CameraRate	NumFrames	NumMarkers	Units	OrigDataRate	OrigDataStartFrame	OrigNumFrames
200.000000	200.000000	8	56	mm	200.000000	673	966
Frame#	Times		LToe		LBHD		RLFC		LACR1		RTH2		C7		LElbow		LUA1		RWRU		LCAR		RMT1		RCAL		LMFC		LWRU		RMT5		RMFC		RTB2		RToe		LWRR		RCAR		RTB3		RTB4		LTH4		RTB1		RFA1		LTH1		LPSI		RElbow		LFHD		RBHD		RPSI		RElbowM		LTH3		T10		RACR1		LASI		LMMAL		LTH2		RTH3		LLFC		LCAL		RMMAL		RBack		RTH1		LTB2		LTB3		RTH4		RFHD		RLMAL		LMT5		RASI		RWRR		LMT1		LLMAL		LTB1		LTB4
			X1	Y1	Z1	X2	Y2	Z2	X3	Y3	Z3	X4	Y4	Z4	X5	Y5	Z5	X6	Y6	Z6	X7	Y7	Z7	X8	Y8	Z8	X9	Y9	Z9	X10	Y10	Z10	X11	Y11	Z11	X12	Y12	Z12	X13	Y13	Z13	X14	Y14	Z14	X15	Y15	Z15	X16	Y16	Z16	X17	Y17	Z17	X18	Y18	Z18	X19	Y19	Z19	X20	Y20	Z20	X21	Y21	Z21	X22	Y22	Z22	X23	Y23	Z23	X24	Y24	Z24	X25	Y25	Z25	X26	Y26	Z26	X27	Y27	Z27	X28	Y28	Z28	X29	Y29	Z29	X30	Y30	Z30	X31	Y31	Z31	X32	Y32	Z32	X33	Y33	Z33	X34	Y34	Z34	X35	Y35	Z35	X36	Y36	Z36	X37	Y37	Z37	X38	Y38	Z38	X39	Y39	Z39	X40	Y40	Z40	X41	Y41	Z41	X42	Y42	Z42	X43	Y43	Z43	X44	Y44	Z44	X45	Y45	Z45	X46	Y46	Z46	X47	Y47	Z47	X48	Y48	Z48	X49	Y49	Z49	X50	Y50	Z50	X51	Y51	Z51	X52	Y52	Z52	X53	Y53	Z53	X54	Y54	Z54	X55	Y55	Z55	X56	Y56	Z56

673	3.365	-107.23	52.755	-61.549	-349.06	1610.3	-78.071	-363.04	495.59	132.68	-323.37	1401.4	-182.06	-309.3	645.27	113.89	-411.28	1472.9	-17.558	-460.83	1086.5	-290.36	-389.68	1207.9	-254.53	-397.03	813.68	269.34	-477.4	946.85	-299.07	-635.93	72.189	45.127	-767.12	223.11	35.214	-310.12	498.31	-2.3595	-393.41	773.37	-289.8	-656.33	100.79	119.59	-383.86	474.07	5.2482	-498.89	317.94	118.85	-590.48	70.332	82.261	-461.43	804.04	-298.23	-326.27	795.48	286.41	-567.98	264.73	41.736	-494.03	312.5	43.867	-320.16	670.6	-160.98	-413.28	366.37	47.872	-414.33	933.58	293.47	-340.34	759.59	-180.25	-530.54	1033.8	-50.441	-446.53	1092.7	288.22	-170.54	1592.8	-43.436	-352.91	1603.4	58.543	-537.61	1032.8	18.756	-483.91	1093.9	210.39	-300.09	580.2	-138.59	-509.37	1220.5	-9.4992	-313.63	1412.6	140.28	-333.7	1021.4	-156.2	-280.79	69.731	-15.557	-261.15	689.24	-121.32	-362.4	540.24	136.59	-295.7	519.3	-130.19	-366.45	33.284	-47.218	-680.44	194.82	18.299	-447.8	1367	137.81	-395.02	729.76	163.21	-254.25	304.53	-114.09	-258.64	212.39	-43.815	-372.39	633.58	152.46	-172.41	1590.6	31.499	-703.26	214.53	95.733	-189.78	26.118	-119.48	-357.31	977.79	147.61	-325.18	839.81	235.26	-151.17	32.795	-43.779	-303.69	59.81	-97.55	-244.29	397.07	-44.926	-253.28	304.87	-42.643
674	3.37	-107.04	52.434	-61.58	-344.57	1611.2	-78.081	-353.5	497.17	132.24	-318.71	1402.2	-182.27	-301.2	647.24	113.3	-406.68	1473.6	-17.753	-454.13	1086.3	-290.84	-383.89	1208.3	-254.82	-393.51	814.12	268.55	-469.25	946.51	-299.48	-624.16	73.964	45.385	-757.04	223.37	34.773	-307.56	498.42	-2.3866	-383.5	774.05	-289.68	-645.09	102.59	119.68	-374.45	475.55	4.7969	-488.85	319.51	118.44	-578.72	72.291	82.666	-451.86	803.87	-298.26	-322.84	795.73	285.72	-557.81	266.07	41.294	-483.9	313.92	43.514	-316.43	670.86	-161.08	-403.33	367.87	47.456	-410.61	934.05	292.71	-336.25	759.93	-180.38	-525.79	1034.5	-50.695	-442.46	1093.2	287.49	-166.04	1593.8	-43.392	-348.46	1604.1	58.522	-532.73	1033.5	18.541	-479.67	1094.5	209.68	-296.77	580.39	-138.58	-504.58	1221.3	-9.7113	-309.23	1413.3	140.3	-328.97	1022.3	-156.65	-280.78	69.649	-15.417	-257.49	689.3	-121.2	-353.33	541.77	136.16	-292.97	519.3	-130.23	-366.49	33.261	-47.178	-670.05	195.82	17.937	-443.39	1367.6	137.43	-388.48	731.12	162.81	-252.86	304.26	-114.07	-257.84	212.18	-43.754	-364.23	635.02	151.98	-167.93	1591.5	31.552	-693	215.59	95.37	-189.78	26.16	-119.44	-352.24	978.4	147.55	-321.55	840.13	234.63	-151.17	32.74	-43.756	-303.65	59.797	-97.476	-242.37	396.78	-44.938	-251.85	304.61	-42.63
675	3.375	-106.88	52.135	-61.625	-340.08	1612	-78.064	-343.98	498.83	131.8	-314.07	1403.1	-182.45	-293.15	649.28	112.7	-402.07	1474.4	-17.922	-447.42	1086.2	-291.31	-378.11	1208.7	-255.09	-389.99	814.57	267.77	-461.06	946.23	-299.89	-612.01	75.497	45.627	-746.72	223.23	34.31	-305.09	498.51	-2.4166	-373.54	774.82	-289.54	-633.51	104.09	119.75	-365.09	477.03	4.3523	-478.71	321	118.06	-566.58	73.996	83.077	-442.23	803.78	-298.28	-319.41	796.02	285.07	-547.45	267.23	40.872	-473.63	315.24	43.166	-312.76	671.12	-161.17	-393.32	369.34	47.074	-406.89	934.53	291.96	-332.19	760.28	-180.48	-521.05	1035.2	-50.93	-438.41	1093.7	286.74	-161.54	1594.8	-43.308	-344.03	1604.9	58.526	-527.87	1034.2	18.337	-475.41	1095.1	208.96	-293.55	580.58	-138.58	-499.8	1222	-9.9263	-304.85	1414.1	140.32	-324.25	1023.1	-157.06	-280.77	69.576	-15.288	-253.88	689.34	-121.06	-344.29	543.39	135.73	-290.35	519.3	-130.26	-366.53	33.235	-47.138	-659.4	196.53	17.567	-438.99	1368.3	137.07	-381.83	732.51	162.4	-251.52	303.99	-114.06	-257.09	211.99	-43.699	-356.09	636.52	151.5	-163.46	1592.5	31.645	-682.51	216.32	94.992	-189.79	26.202	-119.41	-347.19	979.06	147.47	-317.91	840.47	234.03	-151.18	32.704	-43.749	-303.62	59.785	-97.406	-240.53	396.5	-44.952	-250.48	304.36	-42.621
676	3.38	-106.74	51.856	-61.682	-335.6	1612.8	-78.023	-334.49	500.56	131.37	-309.45	1404	-182.62	-285.16	651.4	112.08	-397.45	1475.1	-18.065	-440.72	1086.2	-291.77	-372.35	1209.1	-255.36	-386.45	815.04	267	-452.83	946.02	-300.29	-599.49	76.784	45.848	-736.16	222.7	33.833	-302.73	498.58	-2.4517	-363.52	775.69	-289.38	-621.59	105.31	119.8	-355.79	478.51	3.9186	-468.47	322.42	117.69	-554.07	75.439	83.486	-432.53	803.78	-298.29	-315.97	796.33	284.45	-536.91	268.21	40.473	-463.2	316.48	42.82	-309.18	671.38	-161.25	-383.25	370.78	46.722	-403.17	935.03	291.21	-328.18	760.64	-180.56	-516.3	1035.9	-51.146	-434.36	1094.3	285.99	-157.05	1595.9	-43.185	-339.62	1605.6	58.554	-523.03	1034.9	18.145	-471.14	1095.7	208.22	-290.45	580.77	-138.58	-495.05	1222.8	-10.147	-300.47	1414.9	140.36	-319.52	1024	-157.44	-280.77	69.51	-15.17	-250.35	689.35	-120.92	-335.27	545.08	135.31	-287.85	519.29	-130.3	-366.58	33.207	-47.098	-648.48	196.93	17.192	-434.6	1368.9	136.73	-375.02	733.89	161.97	-250.24	303.72	-114.05	-256.38	211.8	-43.649	-347.96	638.08	151.04	-159	1593.5	31.775	-671.79	216.72	94.605	-189.81	26.241	-119.37	-342.15	979.79	147.38	-314.26	840.83	233.44	-151.19	32.686	-43.755	-303.61	59.773	-97.34	-238.78	396.23	-44.967	-249.17	304.11	-42.616
677	3.385	-106.61	51.595	-61.747	-331.12	1613.7	-77.956	-325.03	502.36	130.94	-304.83	1404.9	-182.75	-277.25	653.57	111.46	-392.84	1475.9	-18.184	-434.01	1086.2	-292.22	-366.6	1209.6	-255.62	-382.9	815.52	266.25	-444.57	945.87	-300.68	-586.62	77.824	46.046	-725.35	221.79	33.349	-300.47	498.65	-2.4935	-353.47	776.65	-289.2	-609.35	106.22	119.84	-346.56	480.01	3.5003	-458.14	323.75	117.35	-541.22	76.617	83.886	-422.79	803.86	-298.29	-312.52	796.66	283.85	-526.19	269.01	40.102	-452.62	317.64	42.469	-305.69	671.64	-161.33	-373.12	372.2	46.398	-399.44	935.55	290.47	-324.23	761	-180.63	-511.57	1036.6	-51.345	-430.32	1094.8	285.23	-152.56	1596.9	-43.026	-335.21	1606.3	58.606	-518.22	1035.7	17.961	-466.87	1096.4	207.46	-287.48	580.94	-138.58	-490.3	1223.5	-10.375	-296.11	1415.7	140.41	-314.8	1024.9	-157.79	-280.78	69.453	-15.064	-246.88	689.31	-120.8	-326.28	546.85	134.91	-285.47	519.28	-130.34	-366.62	33.178	-47.06	-637.3	197.03	16.816	-430.21	1369.6	136.41	-368.05	735.28	161.53	-249	303.46	-114.05	-255.71	211.62	-43.603	-339.86	639.69	150.61	-154.55	1594.5	31.94	-660.85	216.79	94.211	-189.84	26.279	-119.33	-337.13	980.58	147.26	-310.61	841.19	232.88	-151.22	32.685	-43.775	-303.59	59.76	-97.278	-237.11	395.98	-44.983	-247.92	303.87	-42.613
678	3.39	-106.5	51.352	-61.82	-326.63	1614.5	-77.865	-315.61	504.2	130.52	-300.23	1405.9	-182.86	-269.42	655.79	110.84	-388.23	1476.7	-18.278	-427.3	1086.2	-292.66	-360.86	1210.1	-255.88	-379.35	816.02	265.51	-436.28	945.79	-301.04	-573.42	78.621	46.217	-714.31	220.5	32.863	-298.33	498.69	-2.5433	-343.37	777.7	-289.01	-596.8	106.85	119.85	-337.39	481.52	3.1016	-447.71	324.98	117.01	-528.04	77.531	84.271	-412.99	804.04	-298.27	-309.07	797.02	283.29	-515.29	269.62	39.763	-441.89	318.72	42.109	-302.3	671.88	-161.4	-362.95	373.59	46.096	-395.71	936.09	289.74	-320.33	761.35	-180.69	-506.83	1037.3	-51.528	-426.28	1095.4	284.47	-148.08	1597.9	-42.834	-330.81	1607.1	58.682	-513.44	1036.5	17.785	-462.59	1097.1	206.69	-284.63	581.08	-138.61	-485.57	1224.2	-10.613	-291.75	1416.5	140.47	-310.06	1025.7	-158.1	-280.79	69.405	-14.97	-243.47	689.23	-120.7	-317.34	548.68	134.51	-283.19	519.27	-130.39	-366.67	33.148	-47.025	-625.88	196.84	16.44	-425.83	1370.2	136.11	-360.9	736.65	161.08	-247.81	303.2	-114.06	-255.09	211.46	-43.561	-331.78	641.34	150.2	-150.11	1595.4	32.136	-649.67	216.52	93.814	-189.87	26.314	-119.3	-332.11	981.42	147.11	-306.94	841.57	232.34	-151.26	32.699	-43.807	-303.59	59.748	-97.218	-235.52	395.74	-45	-246.73	303.64	-42.612
679	3.395	-106.41	51.124	-61.898	-322.15	1615.4	-77.751	-306.25	506.1	130.11	-295.63	1406.8	-182.94	-261.67	658.06	110.23	-383.62	1477.5	-18.35	-420.57	1086.3	-293.09	-355.13	1210.7	-256.14	-375.79	816.53	264.8	-427.97	945.76	-301.37	-559.89	79.182	46.362	-703.02	218.85	32.382	-296.32	498.73	-2.6027	-333.25	778.83	-288.8	-583.94	107.18	119.84	-328.31	483.04	2.726	-437.2	326.11	116.7	-514.53	78.19	84.637	-403.16	804.29	-298.24	-305.6	797.4	282.76	-504.24	270.04	39.459	-431.02	319.73	41.734	-299.01	672.1	-161.46	-352.72	374.95	45.811	-391.98	936.64	289.03	-316.5	761.69	-180.74	-502.09	1038	-51.695	-422.24	1096	283.7	-143.6	1598.9	-42.612	-326.42	1607.9	58.781	-508.67	1037.3	17.617	-458.3	1097.7	205.91	-281.91	581.2	-138.64	-480.85	1225	-10.86	-287.39	1417.3	140.54	-305.32	1026.5	-158.37	-280.8	69.365	-14.887	-240.13	689.1	-120.64	-308.43	550.56	134.13	-281	519.26	-130.44	-366.72	33.119	-46.992	-614.21	196.36	16.068	-421.44	1370.9	135.83	-353.61	738	160.64	-246.65	302.95	-114.07	-254.5	211.3	-43.522	-323.75	643.02	149.82	-145.67	1596.4	32.361	-638.28	215.92	93.417	-189.9	26.346	-119.27	-327.1	982.32	146.94	-303.26	841.96	231.82	-151.31	32.725	-43.85	-303.59	59.735	-97.16	-234.01	395.5	-45.018	-245.6	303.41	-42.615
680	3.4	-106.32	50.91	-61.979	-317.66	1616.2	-77.615	-296.94	508.03	129.71	-291.02	1407.8	-183	-254	660.37	109.63	-379.03	1478.3	-18.399	-413.84	1086.4	-293.52	-349.4	1211.3	-256.4	-372.22	817.04	264.1	-419.64	945.8	-301.67	-546.05	79.515	46.483	-691.49	216.82	31.909	-294.42	498.74	-2.6736	-323.09	780.04	-288.57	-570.79	107.24	119.82	-319.3	484.59	2.3757	-426.59	327.13	116.39	-500.72	78.603	84.98	-393.29	804.63	-298.19	-302.12	797.79	282.25	-493.03	270.27	39.194	-420	320.66	41.343	-295.81	672.3	-161.52	-342.45	376.31	45.537	-388.24	937.19	288.33	-312.73	762.01	-180.79	-497.34	1038.7	-51.849	-418.21	1096.6	282.95	-139.12	1599.9	-42.363	-322.03	1608.6	58.902	-503.91	1038	17.455	-454.02	1098.4	205.13	-279.31	581.3	-138.7	-476.14	1225.7	-11.118	-283.03	1418.1	140.61	-300.56	1027.4	-158.62	-280.81	69.334	-14.814	-236.86	688.93	-120.62	-299.59	552.49	133.75	-278.88	519.25	-130.49	-366.78	33.09	-46.961	-602.29	195.58	15.702	-417.06	1371.6	135.56	-346.18	739.34	160.22	-245.54	302.7	-114.09	-253.94	211.15	-43.488	-315.76	644.73	149.46	-141.23	1597.4	32.612	-626.66	215	93.023	-189.93	26.375	-119.24	-322.09	983.27	146.74	-299.57	842.35	231.32	-151.36	32.76	-43.902	-303.6	59.722	-97.105	-232.58	395.28	-45.039	-244.52	303.19	-42.621
